<?xml version="1.0" encoding="utf-8"?>
<!-- Generated by IcoMoon.io -->
<!DOCTYPE svg PUBLIC "-//W3C//DTD SVG 1.1//EN" "http://www.w3.org/Graphics/SVG/1.1/DTD/svg11.dtd">
<svg version="1.1" xmlns="http://www.w3.org/2000/svg" xmlns:xlink="http://www.w3.org/1999/xlink" width="480" height="32" viewBox="0 0 480 32">
<svg id="iconsvg_f001didi" width="32" height="32" viewBox="0 0 32 32" x="0" y="0">
<path fill="#ef8724" d="M25.5 3.5v4.8h-18.7c-0.7 0-1.2 0.5-1.2 1.2v3.8c0 2.8 1.1 5.4 3.1 7.4s4.6 3.1 7.4 3.1v0 0c5.7-0.2 10.2-4.7 10.3-10.4v-4.2h5.1v4.7c-0.1 3.9-1.7 7.6-4.7 10.3-2.9 2.7-6.7 4.3-10.8 4.4v0c-4.1 0-8-1.6-11-4.3-3-2.8-4.7-6.5-4.7-10.4v-9.3c0-0.3 0.1-0.6 0.3-0.8s0.5-0.3 0.8-0.3v0h24.1zM26 3h-24.5c0 0 0 0 0 0-0.9 0-1.5 0.6-1.5 1.6v9.2c0.1 8.5 7.4 15.1 16.1 15.2v0c8.5-0.2 15.8-6.8 15.9-15.2v-5.1h-6v4.7c-0.1 5.4-4.4 9.8-9.9 9.9v0c-5.6-0.1-10-4.5-10.1-10v-3.8c0-0.5 0.3-0.8 0.8-0.8h19.2v-5.7z"></path>
<path fill="#ef8724" d="M16.1 23.3c5.5-0.2 9.8-4.5 9.9-9.9v-4.7h6v5.1c-0.1 8.4-7.4 15-15.9 15.2v0c-8.7-0.1-16-6.7-16.1-15.2v-9.2c0-1 0.6-1.6 1.5-1.6h24.5v5.6h-19.2c-0.5 0.1-0.8 0.4-0.8 0.9v3.8c0.1 5.4 4.5 9.9 10.1 10v0z"></path>
</svg>
<svg id="iconsvg_f002ridea" width="32" height="32" viewBox="0 0 32 32" x="64" y="0">
<path fill="#e68234" d="M28.106 29.291c-2.314-2.427-8.447-10.272-8.447-10.272-0.245-0.301-0.621-0.47-0.997-0.47l-10.159-0.207c-0.734 0-1.336 0.602-1.336 1.336v1.975c0 0.734 0.546 1.11 1.75 1.26l3.048 0.245c0.433 0 0.828 0.207 1.072 0.546l5.964 8.277h9.782c0.715 0 1.373-0.245 1.9-0.64-0.771-0.414-1.637-1.072-2.577-2.051z"></path>
<path fill="#292929" d="M11.193 25.322l-4.139-0.451c-1.26-0.245-2.22-1.148-2.22-2.427l0.151-3.574c0-1.637 0.997-2.841 2.784-2.803h11.231c0.019-0.132 0.056-0.263 0.132-0.395l4.007-6.283c0.169-0.263 0.188-0.583 0.038-0.865l-0.602-1.129c-0.151-0.282-0.451-0.47-0.771-0.47h-4.12c-1.336 0.019-1.467-2.37 0.094-2.427 0.47-0.019 1.862 0 1.862 0 0.64 0 1.072-0.696 0.771-1.26l-0.602-1.129c-0.151-0.282-0.433-0.452-0.753-0.47 0 0-5.268-0.075-7.168-0.094-0.696 0-1.373-0.847-1.223-1.543h-7.45c-1.768 0-3.217 1.449-3.217 3.217v25.585c0 1.768 1.449 3.217 3.217 3.217h12.529c-1.938-2.991-4.346-6.66-4.553-6.697z"></path>
<path fill="#4f4f4f" d="M26.281 9.463l-4.553 7.149c0 0 6.302 8.315 8.578 10.535 0.602 0.583 1.185 0.978 1.674 1.223v0-25.152c0.019-1.768-1.43-3.217-3.198-3.217h-7.055l4.44 8.277c0.151 0.263 0.282 0.922 0.113 1.185z"></path>
<path fill="#fff" d="M32 28.783v-0.395c-0.508-0.245-1.072-0.621-1.674-1.223-2.295-2.22-8.578-10.535-8.578-10.535l4.553-7.149c0.169-0.263 0.038-0.922-0.094-1.204l-4.477-8.277h-11.062c-0.15 0.696 0.527 1.543 1.223 1.543 1.9 0 7.168 0.094 7.168 0.094 0.32 0 0.602 0.188 0.753 0.47l0.602 1.129c0.301 0.583-0.113 1.26-0.771 1.26 0 0-1.392-0.019-1.862 0-1.561 0.056-1.43 2.446-0.094 2.427h4.139c0.32 0 0.621 0.169 0.771 0.47l0.602 1.129c0.151 0.282 0.132 0.602-0.038 0.865l-4.045 6.302c-0.075 0.132-0.113 0.263-0.132 0.395h-11.231c-1.787-0.038-2.784 1.166-2.784 2.803l-0.151 3.574c0 1.279 0.959 2.182 2.22 2.427l4.139 0.451c0.207 0.038 2.615 3.687 4.534 6.678h3.292l-5.964-8.277c-0.245-0.339-0.658-0.546-1.072-0.546l-3.048-0.245c-1.204-0.151-1.75-0.527-1.75-1.26v-1.975c0-0.734 0.602-1.336 1.336-1.336l10.159 0.207c0.395 0 0.753 0.169 0.997 0.47 0 0 6.133 7.845 8.447 10.272 0.941 0.978 1.806 1.637 2.577 2.069 0.79-0.621 1.317-1.561 1.317-2.615z"></path>
</svg>
<svg id="iconsvg_f003ridea" width="32" height="32" viewBox="0 0 32 32" x="128" y="0">
<path fill="#e68234" d="M28.106 29.291c-2.314-2.427-8.447-10.272-8.447-10.272-0.245-0.301-0.621-0.47-0.997-0.47l-10.159-0.207c-0.734 0-1.336 0.602-1.336 1.336v1.975c0 0.734 0.546 1.11 1.75 1.26l3.048 0.245c0.433 0 0.828 0.207 1.072 0.546l5.964 8.277h9.782c0.715 0 1.373-0.245 1.9-0.64-0.771-0.414-1.637-1.072-2.577-2.051z"></path>
<path fill="#fff" d="M11.193 25.322l-4.139-0.451c-1.26-0.245-2.22-1.148-2.22-2.427l0.151-3.574c0-1.637 0.997-2.841 2.784-2.803h11.231c0.019-0.132 0.056-0.263 0.132-0.395l4.007-6.283c0.169-0.263 0.188-0.583 0.038-0.865l-0.602-1.129c-0.151-0.282-0.451-0.47-0.771-0.47h-4.12c-1.336 0.019-1.467-2.37 0.094-2.427 0.47-0.019 1.862 0 1.862 0 0.64 0 1.072-0.696 0.771-1.26l-0.602-1.129c-0.151-0.282-0.433-0.452-0.753-0.47 0 0-5.268-0.075-7.168-0.094-0.696 0-1.373-0.847-1.223-1.543h-7.45c-1.768 0-3.217 1.449-3.217 3.217v25.585c0 1.768 1.449 3.217 3.217 3.217h12.529c-1.938-2.991-4.346-6.66-4.553-6.697z"></path>
<path fill="#fff" d="M26.281 9.463l-4.553 7.149c0 0 6.302 8.315 8.578 10.535 0.602 0.583 1.185 0.978 1.674 1.223v0-25.152c0.019-1.768-1.43-3.217-3.198-3.217h-7.055l4.44 8.277c0.151 0.263 0.282 0.922 0.113 1.185z"></path>
<path fill="#000" d="M32 28.783v-0.395c-0.508-0.245-1.072-0.621-1.674-1.223-2.295-2.22-8.578-10.535-8.578-10.535l4.553-7.149c0.169-0.263 0.038-0.922-0.094-1.204l-4.477-8.277h-11.062c-0.15 0.696 0.527 1.543 1.223 1.543 1.9 0 7.168 0.094 7.168 0.094 0.32 0 0.602 0.188 0.753 0.47l0.602 1.129c0.301 0.583-0.113 1.26-0.771 1.26 0 0-1.392-0.019-1.862 0-1.561 0.056-1.43 2.446-0.094 2.427h4.139c0.32 0 0.621 0.169 0.771 0.47l0.602 1.129c0.151 0.282 0.132 0.602-0.038 0.865l-4.045 6.302c-0.075 0.132-0.113 0.263-0.132 0.395h-11.231c-1.787-0.038-2.784 1.166-2.784 2.803l-0.151 3.574c0 1.279 0.959 2.182 2.22 2.427l4.139 0.451c0.207 0.038 2.615 3.687 4.534 6.678h3.292l-5.964-8.277c-0.245-0.339-0.658-0.546-1.072-0.546l-3.048-0.245c-1.204-0.151-1.75-0.527-1.75-1.26v-1.975c0-0.734 0.602-1.336 1.336-1.336l10.159 0.207c0.395 0 0.753 0.169 0.997 0.47 0 0 6.133 7.845 8.447 10.272 0.941 0.978 1.806 1.637 2.577 2.069 0.79-0.621 1.317-1.561 1.317-2.615z"></path>
</svg>
</svg>
